<svg xmlns="http://www.w3.org/2000/svg" xmlns:xlink="http://www.w3.org/1999/xlink"><symbol id="icon__default" viewBox="0 0 32 32"><g fill="none"><rect x="4.8" y="4.8" width="3.2" height="3.2" rx="1.6" fill="#10B981"/><rect x="4.8" y="9.6" width="3.2" height="3.2" rx="1.6" fill="#10B981"/><rect x="4.8" y="14.4" width="3.2" height="3.2" rx="1.6" fill="#10B981"/><rect x="4.8" y="19.2" width="3.2" height="3.2" rx="1.6" fill="#10B981"/><rect x="4.8" y="24" width="3.2" height="3.2" rx="1.6" fill="#10B981"/><rect x="9.6" y="4.8" width="3.2" height="3.2" rx="1.6" fill="currentColor"/><rect x="9.6" y="9.6" width="3.2" height="3.2" rx="1.6" fill="currentColor"/><rect x="9.6" y="19.2" width="3.2" height="3.2" rx="1.6" fill="currentColor"/><rect x="9.6" y="24" width="3.2" height="3.2" rx="1.6" fill="currentColor"/><rect x="14.4" y="4.8" width="3.2" height="3.2" rx="1.6" fill="currentColor"/><rect x="14.4" y="9.6" width="3.2" height="3.2" rx="1.6" fill="currentColor"/><rect x="14.4" y="14.4" width="3.2" height="3.2" rx="1.6" fill="currentColor"/><rect x="14.4" y="24" width="3.2" height="3.2" rx="1.6" fill="currentColor"/><rect x="19.2" y="4.8" width="3.2" height="3.2" rx="1.6" fill="currentColor"/><rect x="19.2" y="14.4" width="3.2" height="3.2" rx="1.6" fill="currentColor"/><rect x="19.2" y="19.2" width="3.2" height="3.2" rx="1.6" fill="currentColor"/><rect x="19.2" y="24" width="3.2" height="3.2" rx="1.6" fill="currentColor"/><rect x="24" y="4.8" width="3.2" height="3.2" rx="1.6" fill="#10B981"/><rect x="24" y="9.6" width="3.2" height="3.2" rx="1.6" fill="#10B981"/><rect x="24" y="14.4" width="3.2" height="3.2" rx="1.6" fill="#10B981"/><rect x="24" y="19.2" width="3.2" height="3.2" rx="1.6" fill="#10B981"/><rect x="24" y="24" width="3.2" height="3.2" rx="1.6" fill="#10B981"/><path d="M1.36 30.487V1.397h4.91v1.227H2.7V29.26h3.57v1.227H1.36zM30.99 1.396v29.091h-4.909V29.26h3.569V2.624h-3.57V1.396h4.91z" fill="currentColor"/></g></symbol><view id="icon__default-view" viewBox="0 0 32 32"/><use href="#icon__default" width="32" height="32" x="0" y="0"/></svg>